# Blender v2.76 (sub 0) OBJ File: 'Asteroides2.blend'
# www.blender.org
mtllib AsteroideLowPoly1Collider.mtl
g AsteroideLowPoly1Collider
v -0.121779 0.534430 -0.475212
v 0.184509 0.530690 -0.256587
v 0.295575 0.361381 -0.686415
v -0.149904 0.502767 0.016682
v -0.258809 0.643029 -0.138882
v 0.249025 0.326890 -0.204368
v 0.455555 0.322862 -0.418214
v 0.488547 0.219230 -0.822425
v 0.506032 0.246031 -0.046263
v 0.785616 -0.005436 -0.667510
v 0.367153 0.359662 -0.041284
v 0.396817 -0.110809 0.072469
v 0.016328 0.329103 0.078209
v 0.021789 0.109975 0.084216
v 0.287381 0.319612 0.092167
v -0.264387 -0.015660 0.008823
v -0.447063 0.284281 -0.471701
v -0.423476 -0.104113 -0.195352
v -0.405476 0.536600 -0.385106
v -0.438101 0.412016 -0.151607
v -0.276707 0.153404 -0.547883
v -0.282819 0.102212 -0.739462
v -0.053928 0.288308 -0.817849
v -0.149187 0.353562 -0.712511
v 0.418087 -0.580829 -0.402948
v 0.024230 -0.398425 -0.660210
v 0.432542 -0.397545 -0.742990
v 0.164268 -0.722293 -0.121511
v 0.139146 -0.551177 0.194968
v 0.474626 -0.504057 -0.044177
v -0.222316 -0.593810 0.044816
v -0.229855 -0.341754 -0.469342
v -0.042659 -0.243883 -0.911747
v 0.559888 -0.222269 -0.873198
v 0.121827 -0.103182 -0.999653
v -0.327307 -0.336897 -0.353109
v -0.290699 -0.317010 -0.677541
v -0.076740 -0.244519 0.203765
v -0.234871 -0.482991 0.159680
v 0.789018 -0.418721 -0.369721
v 0.743797 -0.234221 -0.481832
v 0.707299 -0.333643 -0.123753
vt 0.652971 0.650014
vt 0.486567 0.583906
vt 0.506046 0.658346
vt 0.505364 0.329929
vt 0.363753 0.423230
vt 0.459418 0.446469
vt 0.283036 0.459560
vt 0.357729 0.504870
vt 0.327896 0.566615
vt 0.482679 0.726694
vt 0.308010 0.661454
vt 0.886363 0.668078
vt 0.529496 0.807354
vt 0.755410 0.731189
vt 0.680337 0.481296
vt 0.839594 0.497281
vt 0.602711 0.282419
vt 0.712397 0.480315
vt 0.853207 0.487009
vt 0.739205 0.213483
vt 0.366112 0.201764
vt 0.312526 0.334865
vt 0.103633 0.329639
vt 0.605620 0.223672
vt 0.469090 0.116289
vt 0.427676 0.238335
vt 0.537672 0.354731
vt 0.586921 0.586685
vt 0.438464 0.587720
vt 0.657521 0.696952
vt 0.370109 0.655705
vt 0.331220 0.560165
vt 0.501241 0.697879
vt 0.388202 0.354264
vt 0.297802 0.582152
vt 0.588430 0.767334
vt 0.227020 0.660233
vt 0.286067 0.352830
vt 0.402412 0.901391
vt 0.089671 0.537495
vt 0.403000 0.752398
vt 0.190943 0.756280
vn 0.599400 0.800300 -0.014400
vn 0.473400 0.877800 0.073700
vn 0.676800 0.732700 -0.070500
vn -0.443000 0.472800 -0.761800
vn -0.678800 0.665600 -0.310100
vn 0.019900 0.898500 -0.438600
vn -0.864300 0.233200 0.445700
vn -0.258300 0.912100 0.318400
vn -0.121100 0.529800 0.839400
vn 0.471400 0.842600 0.260400
vn -0.044900 0.273100 0.960900
vn 0.939500 0.190300 -0.284700
vn 0.746500 0.463300 0.477600
vn 0.984300 -0.089300 -0.152500
vn 0.277000 0.859700 -0.429100
vn 0.450000 0.603900 -0.657900
vn -0.288100 0.561600 -0.775700
vn 0.240200 -0.777000 -0.581900
vn 0.507600 -0.365900 -0.780100
vn -0.084100 -0.064800 -0.994300
vn -0.858500 -0.051900 -0.510200
vn -0.875300 -0.041200 -0.481800
vn -0.894000 -0.343000 0.288200
vn -0.346500 -0.456300 -0.819600
vn -0.834200 0.292900 -0.467300
vn -0.710600 -0.575000 -0.405600
vn -0.208300 -0.880100 -0.426700
vn 0.248400 -0.929600 -0.272400
vn 0.047800 -0.998800 0.012300
vn 0.902200 -0.423900 -0.080300
vn 0.207100 -0.482400 0.851100
vn -0.680700 -0.712700 0.169300
vn 0.565800 -0.603200 0.562100
vn -0.329300 -0.925000 -0.189700
vn -0.730500 -0.167900 0.662000
vn 0.814500 -0.142700 0.562300
vn -0.325000 0.171900 0.929900
vn -0.736600 -0.676300 -0.008800
vn 0.411200 0.045300 0.910400
vn -0.648700 -0.068500 0.758000
vn 0.216100 0.542700 0.811700
vn -0.113700 0.123600 0.985800
usemtl Material.003
s 1
f 7/1/1 2/2/2 6/3/3
f 24/4/4 19/5/5 1/6/6
f 20/7/7 5/8/8 19/5/5
f 2/2/2 5/8/8 4/9/9
f 11/10/10 4/9/9 13/11/11
f 2/2/2 4/9/9 11/10/10
f 10/12/12 9/13/13 41/14/14
f 3/15/15 8/16/16 23/17/17
f 27/18/18 34/19/19 41/14/14
f 11/10/10 9/13/13 7/1/1
f 8/16/16 34/19/19 35/20/20
f 24/4/4 21/21/21 17/22/22
f 7/1/1 8/16/16 3/15/15
f 34/19/19 8/16/16 10/12/12
f 18/23/23 17/22/22 21/21/21
f 23/17/17 33/24/24 22/25/25
f 7/1/1 10/12/12 8/16/16
f 1/6/6 19/5/5 5/8/8
f 37/26/26 22/25/25 33/24/24
f 26/27/27 25/28/28 28/29/29
f 21/21/21 22/25/25 37/26/26
f 27/18/18 40/30/30 25/28/28
f 28/29/29 29/31/31 31/32/32
f 26/27/27 28/29/29 31/32/32
f 25/28/28 40/30/30 30/33/33
f 32/34/34 31/32/32 39/35/35
f 33/24/24 26/27/27 37/26/26
f 42/36/36 40/30/30 41/14/14
f 34/19/19 27/18/18 35/20/20
f 29/31/31 39/35/35 31/32/32
f 18/23/23 21/21/21 37/26/26
f 38/37/37 36/38/38 39/35/35
f 12/39/39 29/31/31 30/33/33
f 16/40/40 18/23/23 36/38/38
f 29/31/31 12/39/39 38/37/37
f 20/7/7 16/40/40 4/9/9
f 18/23/23 20/7/7 17/22/22
f 36/38/38 18/23/23 37/26/26
f 38/37/37 16/40/40 36/38/38
f 3/15/15 2/2/2 7/1/1
f 12/39/39 15/41/41 14/42/42
f 40/30/30 27/18/18 41/14/14
f 2/2/2 3/15/15 1/6/6
f 11/10/10 7/1/1 6/3/3
f 5/8/8 2/2/2 1/6/6
f 19/5/5 24/4/4 17/22/22
f 15/41/41 11/10/10 13/11/11
f 6/3/3 2/2/2 11/10/10
f 10/12/12 7/1/1 9/13/13
f 42/36/36 41/14/14 9/13/13
f 23/17/17 8/16/16 35/20/20
f 9/13/13 15/41/41 12/39/39
f 9/13/13 11/10/10 15/41/41
f 42/36/36 9/13/13 12/39/39
f 4/9/9 16/40/40 13/11/11
f 14/42/42 13/11/11 16/40/40
f 14/42/42 15/41/41 13/11/11
f 38/37/37 12/39/39 14/42/42
f 18/23/23 16/40/40 20/7/7
f 5/8/8 20/7/7 4/9/9
f 19/5/5 17/22/22 20/7/7
f 21/21/21 23/17/17 22/25/25
f 23/17/17 35/20/20 33/24/24
f 23/17/17 21/21/21 24/4/4
f 24/4/4 3/15/15 23/17/17
f 25/28/28 26/27/27 27/18/18
f 32/34/34 26/27/27 31/32/32
f 24/4/4 1/6/6 3/15/15
f 36/38/38 32/34/34 39/35/35
f 36/38/38 37/26/26 32/34/34
f 10/12/12 41/14/14 34/19/19
f 27/18/18 33/24/24 35/20/20
f 39/35/35 29/31/31 38/37/37
f 29/31/31 28/29/29 30/33/33
f 28/29/29 25/28/28 30/33/33
f 26/27/27 33/24/24 27/18/18
f 30/33/33 40/30/30 42/36/36
f 42/36/36 12/39/39 30/33/33
f 38/37/37 14/42/42 16/40/40
f 26/27/27 32/34/34 37/26/26
