# Blender v2.76 (sub 0) OBJ File: 'Asteroides2.blend'
# www.blender.org
mtllib AsteroideLowPoly2Collider.mtl
o AsteroideLowPoly2Collider
v 1.564746 -1.453029 -3.347439
v 1.912852 -1.497967 -3.332180
v 1.609387 -1.166568 -2.489354
v 2.024139 -1.379529 -2.969056
v 2.216705 -1.560788 -2.442689
v 2.551647 -1.942657 -3.048470
v 2.068941 -1.408809 -2.482784
v 2.127278 -2.132316 -2.369062
v 1.710794 -1.496477 -2.363471
v 1.212275 -1.912711 -2.524437
v 1.299500 -1.667543 -3.061633
v 1.329815 -1.335795 -2.760892
v 1.335043 -1.964794 -3.419673
v 2.438422 -2.548468 -2.829532
v 1.620234 -2.272522 -3.546867
v 2.216708 -2.353143 -3.223779
v 1.814758 -2.783888 -2.485827
v 2.184892 -2.548734 -2.486576
v 1.362992 -2.390162 -2.810567
v 1.326996 -2.371426 -3.269398
v 1.274490 -2.173783 -2.713912
v 1.830028 -2.508176 -2.203025
v 1.543735 -2.085743 -2.354639
v 1.430822 -2.610326 -2.347495
v 2.482296 -2.272764 -2.561618
vn 0.497600 0.725800 0.475100
vn -0.170900 0.869800 0.462800
vn -0.095400 0.247800 0.964100
vn 0.628900 0.466300 0.622200
vn 0.476800 0.847200 -0.234300
vn 0.352000 0.577700 -0.736500
vn 0.512900 -0.470000 -0.718400
vn -0.050300 -0.428300 -0.902300
vn 0.918600 0.127700 -0.374000
vn -0.539100 0.006100 0.842200
vn -0.875300 -0.072700 0.478000
vn -0.935600 0.236100 -0.262400
vn -0.766000 0.642800 -0.001200
vn -0.900900 -0.357400 0.246200
vn -0.743000 0.107600 -0.660500
vn -0.282800 0.660300 -0.695700
vn 0.787100 -0.575400 -0.222200
vn 0.006500 -0.987300 0.158700
vn -0.582300 -0.753900 -0.304200
vn -0.729100 -0.499500 0.467900
vn -0.787000 -0.616900 0.007000
vn 0.407000 0.024100 0.913100
vn 0.126700 -0.285400 0.950000
vn 0.552500 -0.543400 0.632100
vn 0.867800 -0.170500 0.466800
usemtl Material.003
s 1
f 7//1 3//2 9//3
f 7//1 5//4 4//5
f 2//6 16//7 15//8
f 16//7 2//6 6//9
f 23//10 9//3 10//11
f 11//12 10//11 12//13
f 21//14 11//12 13//15
f 11//12 12//13 1//16
f 1//16 15//8 13//15
f 4//5 6//9 2//6
f 15//8 14//17 17//18
f 21//14 13//15 20//19
f 15//8 20//19 13//15
f 15//8 17//18 24//20
f 23//10 19//21 24//20
f 8//22 22//23 18//24
f 23//10 21//14 19//21
f 10//11 9//3 3//2
f 19//21 21//14 20//19
f 15//8 19//21 20//19
f 8//22 5//4 9//3
f 4//5 1//16 3//2
f 25//25 14//17 16//7
f 4//5 2//6 1//16
f 4//5 3//2 7//1
f 6//9 4//5 5//4
f 25//25 6//9 5//4
f 25//25 5//4 8//22
f 5//4 7//1 9//3
f 22//23 8//22 9//3
f 22//23 9//3 23//10
f 23//10 10//11 21//14
f 3//2 1//16 12//13
f 1//16 2//6 15//8
f 14//17 15//8 16//7
f 19//21 15//8 24//20
f 17//18 18//24 22//23
f 24//20 22//23 23//10
f 17//18 14//17 18//24
f 17//18 22//23 24//20
f 13//15 11//12 1//16
f 12//13 10//11 3//2
f 18//24 14//17 25//25
f 21//14 10//11 11//12
f 25//25 8//22 18//24
f 6//9 25//25 16//7
