# Blender v2.76 (sub 0) OBJ File: 'Asteroides2.blend'
# www.blender.org
mtllib AsteroideUVLowPoly.mtl
o AsteroideLowPoly1_Cube.003
v 0.084566 0.506318 -0.369479
v 0.084566 0.441919 -0.565105
v 0.084566 0.367713 -0.693039
v 0.292256 0.506400 -0.369478
v 0.263267 0.409139 -0.548180
v 0.241058 0.362764 -0.672105
v 0.400286 0.352419 -0.369478
v 0.364693 0.318578 -0.514717
v 0.333749 0.329832 -0.618662
v -0.128623 0.535786 -0.369479
v -0.327942 0.541216 -0.369479
v -0.106260 0.470408 -0.560304
v -0.263533 0.452067 -0.548714
v -0.076478 0.380638 -0.681206
v -0.194073 0.389032 -0.648118
v 0.084565 0.505949 -0.161872
v 0.084565 0.445393 -0.006095
v -0.136340 0.622419 -0.148573
v -0.102150 0.481435 -0.006427
v -0.324230 0.571272 -0.159884
v -0.234420 0.470122 -0.050493
v 0.243879 0.311162 -0.210165
v 0.368539 0.326132 -0.222316
v 0.251724 0.404646 -0.045526
v 0.329754 0.321802 -0.124290
v 0.499081 0.267799 -0.369478
v 0.523538 0.280554 -0.563070
v 0.451067 0.285940 -0.735980
v 0.623113 0.160168 -0.369478
v 0.687071 0.166605 -0.624812
v 0.505607 0.162008 -0.790519
v 0.629139 0.000000 -0.369478
v 0.737127 0.000000 -0.643217
v 0.530246 0.000000 -0.815159
v 0.410825 0.286656 -0.369478
v 0.422515 0.309435 -0.521866
v 0.375603 0.326971 -0.660516
v 0.514241 0.277690 -0.179332
v 0.433904 0.278627 -0.020140
v 0.428337 0.314226 -0.214807
v 0.385188 0.337187 -0.068856
v 0.537579 0.156634 -0.168745
v 0.594155 0.000000 -0.147895
v 0.461578 0.157986 0.007534
v 0.445755 0.000000 -0.008289
v 0.084565 0.279994 0.088893
v 0.281768 0.283557 0.079241
v 0.084565 0.156585 0.110449
v 0.280922 0.155834 0.071551
v 0.084565 0.000000 0.107117
v 0.274640 0.000000 0.053735
v 0.084565 0.353568 0.043304
v 0.262363 0.362729 0.033239
v -0.091278 0.265799 0.021599
v -0.246342 0.270774 -0.038571
v -0.089352 0.354593 0.023351
v -0.254544 0.378205 -0.030369
v -0.071979 0.148563 -0.037452
v -0.098042 0.000000 0.033266
v -0.260867 0.155102 -0.024047
v -0.282790 0.000000 -0.002124
v -0.441537 0.298827 -0.369479
v -0.422357 0.301489 -0.150708
v -0.425268 0.158413 -0.369479
v -0.438677 0.161318 -0.143095
v -0.341920 0.000000 -0.369479
v -0.447659 0.000000 -0.139638
v -0.450332 0.448005 -0.369479
v -0.397245 0.427809 -0.160652
v -0.350118 0.279233 -0.561481
v -0.177983 0.241648 -0.632028
v -0.311760 0.357470 -0.544768
v -0.213430 0.334387 -0.667474
v -0.274908 0.150394 -0.536049
v -0.250714 0.000000 -0.527476
v -0.243656 0.153529 -0.697700
v -0.277262 0.000000 -0.731307
v 0.084566 0.271626 -0.797758
v 0.265083 0.269684 -0.773167
v 0.084566 0.296615 -0.708615
v 0.241140 0.318218 -0.718101
v 0.084566 0.157488 -0.864183
v 0.084566 0.000000 -0.925128
v 0.290697 0.157619 -0.837270
v 0.315571 0.000000 -0.904894
v -0.092900 0.267148 -0.764934
v -0.112650 0.155991 -0.812860
v -0.124239 0.000000 -0.844037
v -0.065034 0.303588 -0.700322
v 0.084566 -0.543852 -0.369479
v 0.302871 -0.563132 -0.369479
v 0.496271 -0.539650 -0.369479
v 0.084566 -0.463045 -0.569058
v 0.272953 -0.458083 -0.557867
v 0.448203 -0.482584 -0.556487
v 0.084566 -0.356593 -0.687339
v 0.249678 -0.396613 -0.689341
v 0.366518 -0.395691 -0.651432
v 0.084566 -0.680942 -0.129132
v 0.084566 -0.661509 0.104697
v 0.312133 -0.656080 -0.141912
v 0.278009 -0.507855 0.007026
v 0.473229 -0.531733 -0.169954
v 0.418382 -0.499929 -0.035662
v -0.112839 -0.451420 -0.369479
v -0.234512 -0.358968 -0.369479
v -0.122336 -0.551650 -0.162578
v -0.242473 -0.410708 -0.200777
v -0.132293 -0.599794 0.053839
v -0.251351 -0.504150 -0.033563
v -0.087030 -0.373227 -0.541074
v -0.069645 -0.353807 -0.667545
v -0.190823 -0.309270 -0.512347
v -0.170561 -0.341776 -0.624605
v 0.084566 -0.287264 -0.853997
v 0.281490 -0.283326 -0.817447
v 0.506287 -0.309467 -0.791201
v 0.084566 -0.163336 -0.959863
v 0.317000 -0.162423 -0.909286
v 0.558994 -0.166885 -0.843907
v 0.084566 -0.324613 -0.744821
v 0.262648 -0.363327 -0.772923
v 0.432751 -0.387878 -0.717663
v -0.109316 -0.280796 -0.809236
v -0.251155 -0.272825 -0.705199
v -0.075140 -0.324784 -0.726083
v -0.213578 -0.334545 -0.667623
v -0.120636 -0.157450 -0.834725
v -0.245966 -0.153741 -0.700011
v -0.353714 -0.274407 -0.369479
v -0.237972 -0.244683 -0.219033
v -0.195659 -0.249179 -0.089254
v -0.329272 -0.354383 -0.369479
v -0.253384 -0.309435 -0.217092
v -0.259804 -0.383811 -0.025110
v -0.390425 -0.156283 -0.369479
v -0.343318 -0.154957 -0.177925
v -0.221991 -0.151550 -0.062922
v -0.324773 -0.271425 -0.552089
v -0.317250 -0.153218 -0.551513
v -0.274832 -0.327084 -0.530281
v 0.084566 -0.310379 0.198170
v 0.304280 -0.302274 0.139992
v 0.457970 -0.288881 0.003926
v 0.084566 -0.462098 0.183644
v 0.305521 -0.453249 0.143248
v 0.451655 -0.408025 -0.002389
v 0.084565 -0.160342 0.171921
v 0.302361 -0.159750 0.130250
v 0.454138 -0.157307 0.000094
v -0.136267 -0.303203 0.143009
v -0.124707 -0.158193 0.106916
v -0.152403 -0.486834 0.184065
v 0.779979 -0.345905 -0.369479
v 0.603786 -0.305277 -0.592806
v 0.670303 -0.487321 -0.369479
v 0.556057 -0.419318 -0.574258
v 0.691821 -0.164368 -0.369478
v 0.732952 -0.169666 -0.641569
v 0.681327 -0.329167 -0.117418
v 0.629463 -0.162763 -0.135186
v 0.600147 -0.455598 -0.147403
vt 0.614152 0.518400
vt 0.551101 0.455836
vt 0.491467 0.523172
vt 0.601657 0.637063
vt 0.545342 0.578009
vt 0.506046 0.658346
vt 0.659511 0.579482
vt 0.626374 0.661139
vt 0.434122 0.589168
vt 0.427516 0.472429
vt 0.465092 0.349938
vt 0.420818 0.383974
vt 0.477507 0.411983
vt 0.683864 0.520232
vt 0.687644 0.597962
vt 0.598617 0.398000
vt 0.623117 0.368243
vt 0.548147 0.315534
vt 0.462001 0.322165
vt 0.523347 0.356805
vt 0.717462 0.518725
vt 0.685382 0.438015
vt 0.380127 0.637554
vt 0.338139 0.574911
vt 0.297271 0.609271
vt 0.576360 0.144592
vt 0.625646 0.049646
vt 0.803490 0.134620
vt 0.396462 0.348119
vt 0.315628 0.531271
vt 0.374989 0.524767
vt 0.298173 0.464462
vt 0.342741 0.487592
vt 0.371773 0.437430
vt 0.547143 0.690308
vt 0.437996 0.689001
vt 0.348400 0.673353
vt 0.487960 0.740267
vt 0.498556 0.703706
vt 0.823871 0.327638
vt 0.720281 0.211072
vt 0.864555 0.668019
vt 0.737849 0.775649
vt 0.812246 0.900109
vt 0.562353 0.717913
vt 0.663294 0.701237
vt 0.750666 0.619741
vt 0.603371 0.842327
vt 0.779846 0.517218
vt 0.867436 0.516687
vt 0.809180 0.379592
vt 0.729717 0.418731
vt 0.717232 0.489572
vt 0.785744 0.488140
vt 0.757372 0.610940
vt 0.988839 0.711237
vt 0.747006 0.792985
vt 0.574501 0.767894
vt 0.269846 0.756653
vt 0.319906 0.706081
vt 0.258653 0.629389
vt 1.002514 0.480278
vt 0.880142 0.486558
vt 0.370879 0.826632
vt 0.307708 0.936992
vt 0.456999 0.975943
vt 0.415215 0.720675
vt 0.400407 0.760383
vt 0.931551 0.291136
vt 0.481192 0.853613
vt 0.630597 0.971813
vt 0.460679 0.862889
vt 0.601386 0.852074
vt 0.346258 0.823006
vt 0.231207 0.548003
vt 0.164424 0.555168
vt 0.168061 0.841318
vt 0.469324 0.264860
vt 0.378250 0.311538
vt 0.009687 0.546303
vt 0.176729 0.424641
vt 0.069735 0.701292
vt 0.174648 0.645228
vt 0.279973 0.537072
vt 0.151908 0.183544
vt 0.248759 0.312441
vt 0.365573 0.221666
vt 0.198296 0.659130
vt 0.300712 0.369668
vt 0.248411 0.448425
vt 0.568140 0.271254
vt 0.597702 0.196753
vt 0.476480 0.178917
vt 0.122282 0.378654
vt 0.014380 0.357454
vt 0.282345 0.084994
vt 0.337569 0.410315
vt 0.719443 0.266554
vt 0.458133 0.023446
vt 0.660137 0.330248
vt 0.669000 0.481468
vt 0.646000 0.549797
vt 0.599119 0.483038
vt 0.536924 0.419265
vt 0.476868 0.493635
vt 0.404143 0.430791
vt 0.484690 0.786559
vt 0.437452 0.129992
vt 0.538724 0.557357
vt 0.475024 0.614231
vt 0.534759 0.280908
vt 0.609664 0.330701
vt 0.586056 0.357187
vt 0.693275 0.585078
vt 0.631816 0.665559
vt 0.590277 0.614611
vt 0.257776 0.432727
vt 0.308319 0.346436
vt 0.342684 0.379439
vt 0.656080 0.281876
vt 0.551950 0.224786
vt 0.420239 0.574504
vt 0.378831 0.614266
vt 0.342277 0.577834
vt 0.367335 0.517868
vt 0.428900 0.664914
vt 0.477387 0.686145
vt 0.475670 0.729251
vt 0.656142 0.462188
vt 0.643438 0.425267
vt 0.528981 0.661151
vt 0.560687 0.708430
vt 0.730728 0.373988
vt 0.398158 0.702666
vt 0.341883 0.657184
vt 0.313232 0.541289
vt 0.305763 0.467357
vt 0.272168 0.537294
vt 0.407649 0.326751
vt 0.379052 0.289957
vt 0.308226 0.600392
vt 0.684054 0.398507
vt 0.455455 0.259821
vt 0.457496 0.291863
vt 0.360106 0.248616
vt 0.323065 0.180153
vt 0.514971 0.311630
vt 0.301342 0.696784
vt 0.248055 0.620997
vt 0.587503 0.762495
vt 0.669429 0.711496
vt 0.451338 0.215236
vt 0.199504 0.507503
vt 0.216565 0.424697
vt 0.470833 0.786903
vt 0.244983 0.750189
vt 0.376421 0.756335
vt 0.272574 0.316555
vt 0.125580 0.517106
vt 0.216561 0.263158
vt 0.462395 0.357163
vt 0.864269 0.651227
vn 0.427700 0.826800 -0.365400
vn 0.135100 0.903800 -0.406100
vn 0.092400 0.979100 -0.181200
vn 0.879900 0.470300 0.067400
vn 0.529800 0.847400 0.035700
vn 0.489100 0.858500 0.154500
vn 0.496300 0.863700 -0.088100
vn 0.625600 0.779900 -0.022400
vn 0.400000 0.895700 0.194200
vn 0.077100 0.954500 -0.288100
vn -0.353000 0.580100 -0.734100
vn -0.473800 0.670600 -0.570800
vn -0.007800 0.886900 -0.461900
vn 0.326000 0.934100 -0.145500
vn 0.232400 0.968200 0.092700
vn 0.007700 0.601900 -0.798500
vn -0.071200 0.699700 -0.710900
vn -0.252300 0.562000 -0.787700
vn -0.469800 0.046100 -0.881500
vn -0.068300 0.560300 -0.825500
vn 0.155100 0.969500 -0.189700
vn 0.159800 0.767900 -0.620300
vn 0.189300 0.704300 0.684200
vn -0.033900 0.538500 0.842000
vn -0.183800 0.111500 0.976600
vn -0.567400 -0.157000 -0.808300
vn -0.488200 0.062900 -0.870500
vn -0.140200 0.242800 -0.959900
vn -0.711600 0.395900 -0.580400
vn -0.403000 0.422700 0.811800
vn 0.068100 0.976300 0.205600
vn -0.833300 0.326400 0.446100
vn -0.563200 0.768800 0.303100
vn -0.383200 0.876400 -0.291700
vn 0.115200 0.991900 0.053100
vn 0.426300 0.896700 0.119500
vn -0.042700 0.502800 0.863300
vn 0.409800 0.901800 0.137100
vn 0.145100 0.943300 -0.298700
vn 0.197400 -0.256100 -0.946300
vn -0.150500 -0.226200 -0.962400
vn 0.812300 0.539100 -0.222400
vn 0.861900 0.418200 0.286900
vn 0.931600 0.227600 0.283400
vn 0.279100 0.956500 -0.085100
vn 0.510100 0.857100 0.072200
vn 0.495200 0.867100 -0.054600
vn 0.898900 0.271700 0.343700
vn 0.419700 0.733800 -0.534300
vn 0.476400 0.430900 -0.766400
vn 0.135000 0.450400 -0.882600
vn 0.120700 0.662700 -0.739100
vn 0.176200 -0.827000 -0.533900
vn 0.450700 -0.637700 -0.624700
vn 0.748900 -0.498900 -0.436200
vn 0.946200 0.194400 -0.258900
vn 0.961400 0.247600 0.120200
vn 0.807800 0.578400 0.113800
vn -0.149500 0.059200 0.987000
vn -0.137100 0.325300 0.935600
vn -0.317300 -0.103000 0.942700
vn 0.493500 0.204000 -0.845500
vn 0.536400 -0.170900 -0.826500
vn 0.279100 -0.036400 0.959600
vn 0.337500 0.141900 0.930600
vn 0.567900 0.024600 0.822700
vn 0.277900 0.712900 0.643900
vn 0.326100 0.264200 0.907700
vn 0.212000 0.197000 -0.957200
vn 0.682000 0.083000 0.726600
vn 0.843200 0.272500 0.463300
vn 0.600600 0.117300 0.790900
vn 0.797400 0.256000 0.546500
vn 0.428400 0.245000 0.869700
vn -0.445200 0.038700 0.894600
vn -0.345600 0.147700 0.926700
vn -0.055900 0.212200 0.975600
vn -0.692700 0.158100 -0.703700
vn -0.744900 -0.021000 -0.666900
vn -0.425500 -0.167900 0.889200
vn -0.894000 0.115200 0.433000
vn -0.398200 0.261200 0.879300
vn -0.648100 0.270100 0.712100
vn -0.463600 0.102200 0.880100
vn -0.915100 -0.104300 -0.389400
vn -0.911300 -0.235600 -0.337700
vn -0.819000 -0.229200 -0.526100
vn -0.335700 0.001000 0.942000
vn -0.980500 -0.026100 -0.194700
vn -0.871800 0.120300 0.474900
vn -0.401700 0.688400 -0.604000
vn -0.426300 0.330600 -0.842000
vn -0.839100 0.403000 -0.365400
vn -0.745200 -0.551100 0.375300
vn -0.910900 -0.300300 0.282900
vn -0.947700 0.101100 -0.302700
vn -0.885100 0.413700 -0.213100
vn -0.075100 0.415800 -0.906300
vn -0.911900 -0.004300 -0.410400
vn -0.047900 0.741400 -0.669400
vn -0.099900 -0.899500 -0.425300
vn 0.147300 -0.872400 -0.466100
vn -0.014600 -0.881600 -0.471800
vn -0.190900 -0.866800 -0.460700
vn -0.214400 -0.881100 -0.421500
vn -0.508400 -0.773400 -0.378600
vn 0.627400 0.497400 0.599100
vn -0.847600 -0.016600 -0.530400
vn 0.051900 -0.935100 -0.350700
vn 0.311300 -0.939000 0.146100
vn -0.114300 -0.907500 -0.404200
vn -0.141600 -0.907800 -0.394800
vn -0.139700 -0.812200 -0.566400
vn 0.568100 -0.617900 -0.543600
vn 0.597900 -0.791600 -0.126200
vn 0.247500 -0.960300 -0.128500
vn -0.967000 0.007700 0.254700
vn -0.651500 -0.755100 0.072900
vn -0.380100 -0.909400 -0.168700
vn -0.113300 -0.748000 -0.653900
vn -0.366700 -0.553700 -0.747600
vn -0.059400 -0.988300 -0.140300
vn 0.171700 -0.792400 0.585300
vn -0.477100 -0.823500 0.306800
vn -0.530800 -0.776800 -0.338800
vn 0.386200 -0.747200 0.540900
vn 0.527600 -0.551900 0.645800
vn 0.637800 -0.331300 0.695300
vn 0.325700 0.772400 -0.545200
vn -0.019900 -0.895900 -0.443800
vn 0.506200 -0.836000 0.211700
vn 0.545600 -0.676300 0.494900
vn 0.119100 -0.585200 -0.802100
vn 0.443800 -0.521800 0.728600
vn 0.096800 -0.305600 0.947200
vn -0.874000 -0.485300 0.025500
vn -0.884300 -0.410600 -0.222300
vn -0.955300 0.179000 0.235300
vn -0.191100 -0.976400 -0.100300
vn -0.372100 -0.915900 -0.150700
vn -0.447300 -0.287400 0.847000
vn 0.017300 -0.787700 -0.615800
vn -0.372000 -0.872800 -0.315900
vn -0.164800 -0.985200 -0.047600
vn -0.904100 -0.326300 -0.276000
vn -0.904500 0.195900 -0.378800
vn -0.230500 -0.895000 -0.381900
vn -0.005900 0.046300 0.998900
vn -0.596200 0.234100 0.768000
vn 0.768300 -0.117100 0.629300
vn 0.984900 -0.115000 -0.129600
vn -0.736600 -0.297700 -0.607200
vn -0.943200 0.096800 0.317900
vn -0.811100 -0.279900 0.513600
vn 0.621200 -0.022700 0.783300
vn -0.031100 0.269800 0.962400
vn 0.468300 0.046000 0.882400
vn -0.939800 -0.333000 0.076600
vn -0.699200 -0.383400 0.603400
vn -0.997800 -0.002100 -0.066700
vn -0.470100 -0.845700 -0.252600
vn 0.892600 -0.368700 -0.259500
usemtl Material.003
s 1
f 5/1/1 2/2/2 1/3/3
f 7/4/4 4/5/5 22/6/6
f 8/7/7 7/4/4 35/8/8
f 16/9/9 1/3/3 10/10/10
f 15/11/11 13/12/12 12/13/13
f 9/14/14 8/7/7 36/15/15
f 3/16/16 80/17/17 89/18/18
f 73/19/19 15/11/11 14/20/20
f 9/14/14 37/21/21 81/22/22
f 17/23/23 19/24/24 56/25/25
f 128/26/26 88/27/27 83/28/28
f 15/11/11 73/19/19 72/29/29
f 21/30/30 19/24/24 18/31/31
f 69/32/32 20/33/33 11/34/34
f 35/8/8 7/4/4 23/35/35
f 16/9/9 18/31/31 19/24/24
f 24/36/36 17/23/23 52/37/37
f 41/38/38 25/39/39 24/36/36
f 11/34/34 13/12/12 72/29/29
f 16/9/9 17/23/23 24/36/36
f 119/40/40 118/41/41 83/28/28
f 30/42/42 29/43/43 32/44/44
f 25/39/39 41/38/38 40/45/45
f 26/46/46 27/47/47 36/15/15
f 27/47/47 26/46/46 29/43/43
f 32/44/44 29/43/43 42/48/48
f 28/49/49 31/50/50 84/51/51
f 37/21/21 28/49/49 79/52/52
f 123/53/53 117/54/54 155/55/55
f 33/56/56 32/44/44 158/57/57
f 40/45/45 38/58/58 26/46/46
f 48/59/59 46/60/60 54/61/61
f 34/62/62 120/63/63 119/40/40
f 49/64/64 51/65/65 45/66/66
f 41/38/38 53/67/67 47/68/68
f 42/48/48 29/43/43 26/46/46
f 31/50/50 34/62/62 85/69/69
f 42/48/48 44/70/70 45/66/66
f 43/71/71 45/66/66 150/72/72
f 32/44/44 43/71/71 161/73/73
f 51/65/65 149/74/74 150/72/72
f 53/67/67 52/37/37 46/60/60
f 55/75/75 54/61/61 56/25/25
f 54/61/61 55/75/75 60/76/76
f 49/64/64 47/68/68 46/60/60
f 149/74/74 51/65/65 50/77/77
f 73/19/19 71/78/78 70/79/79
f 27/47/47 28/49/49 37/21/21
f 52/37/37 56/25/25 54/61/61
f 61/80/80 60/76/76 65/81/81
f 120/63/63 34/62/62 33/56/56
f 65/81/81 60/76/76 55/75/75
f 50/77/77 59/82/82 152/83/83
f 69/32/32 57/84/84 21/30/30
f 66/85/85 64/86/86 74/87/87
f 59/82/82 58/88/88 60/76/76
f 62/89/89 63/90/90 69/32/32
f 86/91/91 87/92/92 76/93/93
f 137/94/94 67/95/95 66/85/85
f 61/80/80 67/95/95 137/94/94
f 75/96/96 74/87/87 76/93/93
f 62/89/89 68/97/97 72/29/29
f 82/98/98 83/28/28 88/27/27
f 34/62/62 31/50/50 30/42/42
f 87/92/92 88/27/27 77/99/99
f 27/47/47 30/42/42 31/50/50
f 63/90/90 62/89/89 64/86/86
f 71/78/78 73/19/19 89/18/18
f 78/100/100 82/98/98 87/92/92
f 98/101/101 95/102/102 94/103/103
f 93/104/104 90/105/105 105/106/106
f 82/98/98 78/100/100 79/52/52
f 81/22/22 79/52/52 78/100/100
f 42/48/48 38/58/58 39/107/107
f 10/10/10 11/34/34 20/33/33
f 49/64/64 44/70/70 39/107/107
f 129/108/108 77/99/99 88/27/27
f 84/51/51 85/69/69 83/28/28
f 90/105/105 91/109/109 101/110/110
f 25/39/39 23/35/35 22/6/6
f 75/96/96 77/99/99 129/108/108
f 19/24/24 21/30/30 57/84/84
f 90/105/105 93/104/104 94/103/103
f 126/111/111 121/112/112 96/113/113
f 157/114/114 156/115/115 92/116/116
f 134/117/117 133/118/118 106/119/119
f 2/2/2 3/16/16 14/20/20
f 115/120/120 124/121/121 128/26/26
f 99/122/122 100/123/123 109/124/124
f 90/105/105 99/122/122 107/125/125
f 102/126/126 104/127/127 147/128/128
f 2/2/2 5/1/1 6/129/129
f 97/130/130 96/113/113 121/112/112
f 103/131/131 162/132/132 147/128/128
f 92/116/116 156/115/115 162/132/132
f 116/133/133 117/54/54 123/53/53
f 102/126/126 146/134/134 145/135/135
f 107/125/125 109/124/124 110/136/136
f 108/137/137 110/136/136 135/138/138
f 105/106/106 106/119/119 113/139/139
f 141/140/140 113/139/139 106/119/119
f 95/102/102 98/101/101 123/53/53
f 153/141/141 135/138/138 110/136/136
f 98/101/101 97/130/130 122/142/142
f 155/55/55 117/54/54 120/63/63
f 141/140/140 127/143/143 114/144/144
f 115/120/120 118/41/41 119/40/40
f 139/145/145 140/146/146 129/108/108
f 115/120/120 121/112/112 126/111/111
f 126/111/111 112/147/147 114/144/144
f 93/104/104 96/113/113 97/130/130
f 145/135/135 142/148/148 151/149/149
f 124/121/121 126/111/111 127/143/143
f 101/110/110 103/131/131 104/127/127
f 160/150/150 154/151/151 158/57/57
f 99/122/122 101/110/110 102/126/126
f 124/121/121 125/152/152 129/108/108
f 139/145/145 125/152/152 127/143/143
f 117/54/54 116/133/133 119/40/40
f 132/153/153 131/154/154 134/117/117
f 91/109/109 92/116/116 103/131/131
f 161/73/73 150/72/72 144/155/155
f 148/156/156 142/148/148 143/157/157
f 130/158/158 133/118/118 134/117/117
f 145/135/135 153/141/141 109/124/124
f 66/85/85 75/96/96 140/146/146
f 74/87/87 70/79/79 71/78/78
f 89/18/18 80/17/17 78/100/100
f 151/149/149 132/153/153 135/138/138
f 143/157/157 146/134/134 147/128/128
f 115/120/120 116/133/133 122/142/142
f 138/159/159 137/94/94 131/154/154
f 146/134/134 143/157/157 142/148/148
f 1/3/3 2/2/2 12/13/13
f 148/156/156 152/83/83 151/149/149
f 63/90/90 55/75/75 57/84/84
f 156/115/115 154/151/151 160/150/150
f 144/155/155 150/72/72 149/74/74
f 67/95/95 65/81/81 64/86/86
f 64/86/86 62/89/89 70/79/79
f 144/155/155 147/128/128 162/132/132
f 137/94/94 136/160/160 130/158/158
f 130/158/158 136/160/160 140/146/146
f 152/83/83 138/159/159 132/153/153
f 93/104/104 111/161/161 112/147/147
f 141/140/140 133/118/118 130/158/158
f 59/82/82 61/80/80 138/159/159
f 38/58/58 40/45/45 41/38/38
f 91/109/109 94/103/103 95/102/102
f 5/1/1 4/5/5 7/4/4
f 51/65/65 49/64/64 48/59/59
f 59/82/82 50/77/77 48/59/59
f 156/115/115 157/114/114 155/55/55
f 111/161/161 113/139/139 114/144/144
f 4/5/5 1/3/3 16/9/9
f 105/106/106 107/125/125 108/137/137
f 158/57/57 154/151/151 155/55/55
f 5/1/1 8/7/7 9/14/14
f 10/10/10 12/13/13 13/12/12
f 81/22/22 80/17/17 3/16/16
f 4/5/5 5/1/1 1/3/3
f 23/35/35 7/4/4 22/6/6
f 36/15/15 8/7/7 35/8/8
f 18/31/31 16/9/9 10/10/10
f 14/20/20 15/11/11 12/13/13
f 37/21/21 9/14/14 36/15/15
f 14/20/20 3/16/16 89/18/18
f 89/18/18 73/19/19 14/20/20
f 6/129/129 9/14/14 81/22/22
f 52/37/37 17/23/23 56/25/25
f 118/41/41 128/26/26 83/28/28
f 13/12/12 15/11/11 72/29/29
f 20/33/33 21/30/30 18/31/31
f 68/97/97 69/32/32 11/34/34
f 40/45/45 35/8/8 23/35/35
f 17/23/23 16/9/9 19/24/24
f 53/67/67 24/36/36 52/37/37
f 53/67/67 41/38/38 24/36/36
f 68/97/97 11/34/34 72/29/29
f 22/6/6 16/9/9 24/36/36
f 85/69/69 119/40/40 83/28/28
f 33/56/56 30/42/42 32/44/44
f 23/35/35 25/39/39 40/45/45
f 35/8/8 26/46/46 36/15/15
f 30/42/42 27/47/47 29/43/43
f 43/71/71 32/44/44 42/48/48
f 79/52/52 28/49/49 84/51/51
f 81/22/22 37/21/21 79/52/52
f 157/114/114 123/53/53 155/55/55
f 159/162/162 33/56/56 158/57/57
f 35/8/8 40/45/45 26/46/46
f 58/88/88 48/59/59 54/61/61
f 85/69/69 34/62/62 119/40/40
f 44/70/70 49/64/64 45/66/66
f 39/107/107 41/38/38 47/68/68
f 38/58/58 42/48/48 26/46/46
f 84/51/51 31/50/50 85/69/69
f 43/71/71 42/48/48 45/66/66
f 161/73/73 43/71/71 150/72/72
f 158/57/57 32/44/44 161/73/73
f 45/66/66 51/65/65 150/72/72
f 47/68/68 53/67/67 46/60/60
f 57/84/84 55/75/75 56/25/25
f 58/88/88 54/61/61 60/76/76
f 48/59/59 49/64/64 46/60/60
f 148/156/156 149/74/74 50/77/77
f 72/29/29 73/19/19 70/79/79
f 36/15/15 27/47/47 37/21/21
f 46/60/60 52/37/37 54/61/61
f 67/95/95 61/80/80 65/81/81
f 159/162/162 120/63/63 33/56/56
f 63/90/90 65/81/81 55/75/75
f 148/156/156 50/77/77 152/83/83
f 20/33/33 69/32/32 21/30/30
f 75/96/96 66/85/85 74/87/87
f 61/80/80 59/82/82 60/76/76
f 68/97/97 62/89/89 69/32/32
f 71/78/78 86/91/91 76/93/93
f 136/160/160 137/94/94 66/85/85
f 138/159/159 61/80/80 137/94/94
f 77/99/99 75/96/96 76/93/93
f 70/79/79 62/89/89 72/29/29
f 87/92/92 82/98/98 88/27/27
f 33/56/56 34/62/62 30/42/42
f 76/93/93 87/92/92 77/99/99
f 28/49/49 27/47/47 31/50/50
f 65/81/81 63/90/90 64/86/86
f 86/91/91 71/78/78 89/18/18
f 86/91/91 78/100/100 87/92/92
f 97/130/130 98/101/101 94/103/103
f 111/161/161 93/104/104 105/106/106
f 84/51/51 82/98/98 79/52/52
f 80/17/17 81/22/22 78/100/100
f 44/70/70 42/48/48 39/107/107
f 18/31/31 10/10/10 20/33/33
f 47/68/68 49/64/64 39/107/107
f 128/26/26 129/108/108 88/27/27
f 82/98/98 84/51/51 83/28/28
f 99/122/122 90/105/105 101/110/110
f 24/36/36 25/39/39 22/6/6
f 140/146/146 75/96/96 129/108/108
f 56/25/25 19/24/24 57/84/84
f 91/109/109 90/105/105 94/103/103
f 112/147/147 126/111/111 96/113/113
f 95/102/102 157/114/114 92/116/116
f 108/137/137 134/117/117 106/119/119
f 12/13/13 2/2/2 14/20/20
f 118/41/41 115/120/120 128/26/26
f 107/125/125 99/122/122 109/124/124
f 105/106/106 90/105/105 107/125/125
f 146/134/134 102/126/126 147/128/128
f 3/16/16 2/2/2 6/129/129
f 122/142/142 97/130/130 121/112/112
f 104/127/127 103/131/131 147/128/128
f 103/131/131 92/116/116 162/132/132
f 122/142/142 116/133/133 123/53/53
f 100/123/123 102/126/126 145/135/135
f 108/137/137 107/125/125 110/136/136
f 134/117/117 108/137/137 135/138/138
f 111/161/161 105/106/106 113/139/139
f 133/118/118 141/140/140 106/119/119
f 157/114/114 95/102/102 123/53/53
f 109/124/124 153/141/141 110/136/136
f 123/53/53 98/101/101 122/142/142
f 159/162/162 155/55/55 120/63/63
f 113/139/139 141/140/140 114/144/144
f 116/133/133 115/120/120 119/40/40
f 125/152/152 139/145/145 129/108/108
f 124/121/121 115/120/120 126/111/111
f 127/143/143 126/111/111 114/144/144
f 94/103/103 93/104/104 97/130/130
f 153/141/141 145/135/135 151/149/149
f 125/152/152 124/121/121 127/143/143
f 102/126/126 101/110/110 104/127/127
f 161/73/73 160/150/150 158/57/57
f 100/123/123 99/122/122 102/126/126
f 128/26/26 124/121/121 129/108/108
f 141/140/140 139/145/145 127/143/143
f 120/63/63 117/54/54 119/40/40
f 135/138/138 132/153/153 134/117/117
f 101/110/110 91/109/109 103/131/131
f 160/150/150 161/73/73 144/155/155
f 149/74/74 148/156/156 143/157/157
f 131/154/154 130/158/158 134/117/117
f 100/123/123 145/135/135 109/124/124
f 136/160/160 66/85/85 140/146/146
f 76/93/93 74/87/87 71/78/78
f 86/91/91 89/18/18 78/100/100
f 153/141/141 151/149/149 135/138/138
f 144/155/155 143/157/157 147/128/128
f 121/112/112 115/120/120 122/142/142
f 132/153/153 138/159/159 131/154/154
f 145/135/135 146/134/134 142/148/148
f 10/10/10 1/3/3 12/13/13
f 142/148/148 148/156/156 151/149/149
f 69/32/32 63/90/90 57/84/84
f 162/132/132 156/115/115 160/150/150
f 143/157/157 144/155/155 149/74/74
f 66/85/85 67/95/95 64/86/86
f 74/87/87 64/86/86 70/79/79
f 160/150/150 144/155/155 162/132/132
f 131/154/154 137/94/94 130/158/158
f 139/145/145 130/158/158 140/146/146
f 151/149/149 152/83/83 132/153/153
f 96/113/113 93/104/104 112/147/147
f 139/145/145 141/140/140 130/158/158
f 152/83/83 59/82/82 138/159/159
f 39/107/107 38/58/58 41/38/38
f 92/116/116 91/109/109 95/102/102
f 8/7/7 5/1/1 7/4/4
f 50/77/77 51/65/65 48/59/59
f 58/88/88 59/82/82 48/59/59
f 154/151/151 156/115/115 155/55/55
f 112/147/147 111/161/161 114/144/144
f 22/6/6 4/5/5 16/9/9
f 106/119/119 105/106/106 108/137/137
f 159/162/162 158/57/57 155/55/55
f 6/129/129 5/1/1 9/14/14
f 11/34/34 10/10/10 13/12/12
f 6/129/129 81/22/22 3/16/16
